<svg width="116" height="37" viewBox="0 0 116 37" fill="none" xmlns="http://www.w3.org/2000/svg">
<rect width="116" height="37" rx="18.5" fill="white"/>
<path d="M19.1562 24V12.625H22.5156C23.5208 12.625 24.4115 12.849 25.1875 13.2969C25.9688 13.7448 26.5729 14.3802 27 15.2031C27.4271 16.026 27.6406 16.9688 27.6406 18.0312V18.6016C27.6406 19.6797 27.4245 20.6276 26.9922 21.4453C26.5651 22.263 25.9531 22.8932 25.1562 23.3359C24.3646 23.7786 23.4557 24 22.4297 24H19.1562ZM21.1328 14.2188V22.4219H22.4219C23.4583 22.4219 24.2526 22.099 24.8047 21.4531C25.362 20.8021 25.6458 19.8698 25.6562 18.6562V18.0234C25.6562 16.7891 25.388 15.8464 24.8516 15.1953C24.3151 14.5443 23.5365 14.2188 22.5156 14.2188H21.1328ZM29.0703 19.6953C29.0703 18.8672 29.2344 18.1224 29.5625 17.4609C29.8906 16.7943 30.3516 16.2839 30.9453 15.9297C31.5391 15.5703 32.2214 15.3906 32.9922 15.3906C34.1328 15.3906 35.0573 15.7578 35.7656 16.4922C36.4792 17.2266 36.8646 18.2005 36.9219 19.4141L36.9297 19.8594C36.9297 20.6927 36.7682 21.4375 36.4453 22.0938C36.1276 22.75 35.6693 23.2578 35.0703 23.6172C34.4766 23.9766 33.7891 24.1562 33.0078 24.1562C31.8151 24.1562 30.8594 23.7604 30.1406 22.9688C29.4271 22.1719 29.0703 21.112 29.0703 19.7891V19.6953ZM30.9688 19.8594C30.9688 20.7292 31.1484 21.4115 31.5078 21.9062C31.8672 22.3958 32.3672 22.6406 33.0078 22.6406C33.6484 22.6406 34.1458 22.3906 34.5 21.8906C34.8594 21.3906 35.0391 20.6589 35.0391 19.6953C35.0391 18.8411 34.8542 18.1641 34.4844 17.6641C34.1198 17.1641 33.6224 16.9141 32.9922 16.9141C32.3724 16.9141 31.8802 17.1615 31.5156 17.6562C31.151 18.1458 30.9688 18.8802 30.9688 19.8594ZM45.9609 21.3828L47.3047 15.5469H49.1562L46.8516 24H45.2891L43.4766 18.1953L41.6953 24H40.1328L37.8203 15.5469H39.6719L41.0391 21.3203L42.7734 15.5469H44.2031L45.9609 21.3828ZM52.1875 15.5469L52.2422 16.5234C52.8672 15.7682 53.6875 15.3906 54.7031 15.3906C56.4635 15.3906 57.3594 16.3984 57.3906 18.4141V24H55.4922V18.5234C55.4922 17.987 55.375 17.5911 55.1406 17.3359C54.9115 17.0755 54.5339 16.9453 54.0078 16.9453C53.2422 16.9453 52.6719 17.2917 52.2969 17.9844V24H50.3984V15.5469H52.1875ZM61.3516 24H59.4531V12H61.3516V24ZM63.0703 19.6953C63.0703 18.8672 63.2344 18.1224 63.5625 17.4609C63.8906 16.7943 64.3516 16.2839 64.9453 15.9297C65.5391 15.5703 66.2214 15.3906 66.9922 15.3906C68.1328 15.3906 69.0573 15.7578 69.7656 16.4922C70.4792 17.2266 70.8646 18.2005 70.9219 19.4141L70.9297 19.8594C70.9297 20.6927 70.7682 21.4375 70.4453 22.0938C70.1276 22.75 69.6693 23.2578 69.0703 23.6172C68.4766 23.9766 67.7891 24.1562 67.0078 24.1562C65.8151 24.1562 64.8594 23.7604 64.1406 22.9688C63.4271 22.1719 63.0703 21.112 63.0703 19.7891V19.6953ZM64.9688 19.8594C64.9688 20.7292 65.1484 21.4115 65.5078 21.9062C65.8672 22.3958 66.3672 22.6406 67.0078 22.6406C67.6484 22.6406 68.1458 22.3906 68.5 21.8906C68.8594 21.3906 69.0391 20.6589 69.0391 19.6953C69.0391 18.8411 68.8542 18.1641 68.4844 17.6641C68.1198 17.1641 67.6224 16.9141 66.9922 16.9141C66.3724 16.9141 65.8802 17.1615 65.5156 17.6562C65.151 18.1458 64.9688 18.8802 64.9688 19.8594ZM77.5859 24C77.5026 23.8385 77.4297 23.5755 77.3672 23.2109C76.763 23.8411 76.0234 24.1562 75.1484 24.1562C74.2995 24.1562 73.6068 23.9141 73.0703 23.4297C72.5339 22.9453 72.2656 22.3464 72.2656 21.6328C72.2656 20.7318 72.599 20.0417 73.2656 19.5625C73.9375 19.0781 74.8958 18.8359 76.1406 18.8359H77.3047V18.2812C77.3047 17.8438 77.1823 17.4948 76.9375 17.2344C76.6927 16.9688 76.3203 16.8359 75.8203 16.8359C75.388 16.8359 75.0339 16.9453 74.7578 17.1641C74.4818 17.3776 74.3438 17.651 74.3438 17.9844H72.4453C72.4453 17.5208 72.599 17.0885 72.9062 16.6875C73.2135 16.2812 73.6302 15.9635 74.1562 15.7344C74.6875 15.5052 75.2786 15.3906 75.9297 15.3906C76.9193 15.3906 77.7083 15.6406 78.2969 16.1406C78.8854 16.6354 79.1875 17.3333 79.2031 18.2344V22.0469C79.2031 22.8073 79.3099 23.4141 79.5234 23.8672V24H77.5859ZM75.5 22.6328C75.875 22.6328 76.2266 22.5417 76.5547 22.3594C76.888 22.1771 77.138 21.9323 77.3047 21.625V20.0312H76.2812C75.5781 20.0312 75.0495 20.1536 74.6953 20.3984C74.3411 20.6432 74.1641 20.9896 74.1641 21.4375C74.1641 21.8021 74.2839 22.0938 74.5234 22.3125C74.7682 22.526 75.0938 22.6328 75.5 22.6328ZM80.8359 19.7109C80.8359 18.4089 81.138 17.3646 81.7422 16.5781C82.3464 15.7865 83.1562 15.3906 84.1719 15.3906C85.0677 15.3906 85.7917 15.7031 86.3438 16.3281V12H88.2422V24H86.5234L86.4297 23.125C85.862 23.8125 85.1042 24.1562 84.1562 24.1562C83.1667 24.1562 82.3646 23.7578 81.75 22.9609C81.1406 22.1641 80.8359 21.0807 80.8359 19.7109ZM82.7344 19.875C82.7344 20.7344 82.8984 21.4062 83.2266 21.8906C83.5599 22.3698 84.0312 22.6094 84.6406 22.6094C85.4167 22.6094 85.9844 22.263 86.3438 21.5703V17.9609C85.9948 17.2839 85.4323 16.9453 84.6562 16.9453C84.0417 16.9453 83.5677 17.1901 83.2344 17.6797C82.901 18.1641 82.7344 18.8958 82.7344 19.875ZM94.9609 21.7031C94.9609 21.3646 94.8203 21.1068 94.5391 20.9297C94.263 20.7526 93.8021 20.5964 93.1562 20.4609C92.5104 20.3255 91.9714 20.1536 91.5391 19.9453C90.5911 19.487 90.1172 18.8229 90.1172 17.9531C90.1172 17.224 90.4245 16.6146 91.0391 16.125C91.6536 15.6354 92.4349 15.3906 93.3828 15.3906C94.3932 15.3906 95.2083 15.6406 95.8281 16.1406C96.4531 16.6406 96.7656 17.2891 96.7656 18.0859H94.8672C94.8672 17.7214 94.7318 17.4193 94.4609 17.1797C94.1901 16.9349 93.8307 16.8125 93.3828 16.8125C92.9661 16.8125 92.625 16.9089 92.3594 17.1016C92.099 17.2943 91.9688 17.5521 91.9688 17.875C91.9688 18.1667 92.0911 18.3932 92.3359 18.5547C92.5807 18.7161 93.0755 18.8802 93.8203 19.0469C94.5651 19.2083 95.1484 19.4036 95.5703 19.6328C95.9974 19.8568 96.3125 20.1276 96.5156 20.4453C96.724 20.763 96.8281 21.1484 96.8281 21.6016C96.8281 22.362 96.513 22.9792 95.8828 23.4531C95.2526 23.9219 94.4271 24.1562 93.4062 24.1562C92.7135 24.1562 92.0964 24.0312 91.5547 23.7812C91.013 23.5312 90.5911 23.1875 90.2891 22.75C89.987 22.3125 89.8359 21.8411 89.8359 21.3359H91.6797C91.7057 21.7839 91.875 22.1302 92.1875 22.375C92.5 22.6146 92.9141 22.7344 93.4297 22.7344C93.9297 22.7344 94.3099 22.6406 94.5703 22.4531C94.8307 22.2604 94.9609 22.0104 94.9609 21.7031Z" fill="#14274C"/>
</svg>
